<?xml version="1.0" encoding="utf-8"?>
<!-- Generator: Adobe Illustrator 25.1.0, SVG Export Plug-In . SVG Version: 6.00 Build 0)  -->
<svg version="1.1" id="Layer_1" xmlns="http://www.w3.org/2000/svg" xmlns:xlink="http://www.w3.org/1999/xlink" x="0px" y="0px"
	 viewBox="0 0 1042 310.7" style="enable-background:new 0 0 1042 310.7;" xml:space="preserve">
<style type="text/css">
	.st0{fill:#FFFFFF;}
</style>
<g>
	<g>
		<path class="st0" d="M117.2,240.2h-12.8c-0.8,4.2-1.6,8.3-2.5,12.5c-2.7,13.1-5.9,26.1-9.1,39.2c-0.7,2.7-1.9,5.6-3.6,7.9
			c-1.3,1.8-3.7,2.8-5.8,4.3v6.7c3.4-1.9,6.4-3.7,9.5-5.2c1.8-0.9,3.4-1.9,4.5-3.6l4.3-8l1.8-3.4c0.3,4-1.6,7.6-2.7,11.4
			c-0.1,0.6,0,1.2,0,1.9c1.6-1.9,2.7-3.9,3.3-5.9c1.8-5.9,4.3-11.7,3.7-18.3c-0.3-1.5,0.9-3.3,1.5-4.9c0.1-0.3,0.6-0.7,0.6-0.9
			c-1.2-1.9,0.1-3.6,0.6-5.2C113,259.2,115.4,249.8,117.2,240.2z M103.7,290.2c-0.1-0.3-0.3-0.6-0.1-1c0.3-1.2,0.6-2.2,1.2-3.9
			C105.7,287.6,104.6,288.9,103.7,290.2z"/>
		<path class="st0" d="M121.2,120.6l7.2-3.6c-0.5,2.7-0.8,4.5-1.2,6.2l-1.8,8c-0.9,5.6-1.7,11-2.9,16.6s-3,11.2-4.1,16.9
			c-3.6,18.8-6.8,37.8-10.4,56.8c-1.2,6.2-2.4,12.5-3.7,18.7h12.8c0.1-0.6,0.2-1.1,0.3-1.7c3.5-17.6,6.8-35.3,10-53.1
			c3.6-20.5,7.1-41,10.6-61.5l2.3-12.4l3.8-2c6.8-3,13.7-6,20.7-8.9c3.6-1.5,7.2-3.3,11-3.9c6.6-1.1,13.1-3.9,19.6-1.1
			c0.6-0.8,0.9-1.2,1.2-1.5c0.5,0.5,0.9,0.6,1.2,0.9c0.3,0.5,0.8,0.9,0.9,1.4c2.6,5,1.7,10.6-2,14.2c-1.7,1.5-3.2,3.2-2.9,6.2
			l4.7-6.3c-0.2,2-0.2,3.2-0.3,4.4l3.6-0.5c1.5,3.3-3.2,3.3-2.9,6c1.2,0.8,2.6,0.9,3.8-0.2c0.8-0.8,1.4-1.5,2.1-2.1
			c5.7-4.5,8.4-15.4,5.7-22c-2.4-5.9-11.8-12.4-18.2-11.6c-6.3,0.8-12.8,0.9-18.8,3.9c-6.6,3.5-13.7,6-20.7,8.9
			c-3.5,1.4-7.2,2.3-11.2,3.5c0.5-3.6,0.8-6.8,1.4-9.8c2.9-15.7,5.3-31.4,6.5-47.2c0.5-6.6,0.9-13.3,1.2-19.9
			c0-4.8-1.1-9.3-5.1-12.4c-1.8-1.4-3.6-2.7-5.3-4.1c-2.1-1.5-4.2-1.5-6.3,0c-1.2,0.8-2.4,1.8-3.6,2.7c-1.8,1.7-3.6,4.1-5.7,4.5
			c-2.4,0.6-3.8,1.8-5.3,3c-4.8,3.9-8.3,9-11.9,13.9c-30,41-56.5,84.3-81.6,128.5c-0.9,1.7-1.4,3.5-1.8,5.1
			c-0.8,2.7-0.8,5.6-4.1,6.6c-0.3,0.2-0.8,0.9-0.9,1.4c-3.8,6.6-7.2,13.4-11.3,20.1c-1.8,3,0,5.7-0.6,8.6C7,203,7.3,204,7.5,205.1
			c0,0.3,0.3,0.5,0.6,0.6c1.7,1.2,1.5,2.6,0.9,4.2c-0.2,0.3,0.2,0.8,0.3,1.2l1.7-0.5c-0.3,2.6-0.3,2.6,1.1,4.4
			c0.6-0.2,1.5-0.5,2-0.3c2.3,1.4,4.2,0.8,5.9-0.8c1.7-1.5,3.5-2.9,3.8-5.4c0.2-1.5,0.9-3.3,1.8-4.5c5.9-7.5,11.5-15.2,17.6-22.5
			C65.2,156.4,91.3,136.2,121.2,120.6z M199.3,109.3c0.6-1.2,1.4-2.3,2-3.5C201.6,107.5,201,108.7,199.3,109.3z M122.2,19.5
			c0.8,2.3-0.5,3-1.2,3.9c-0.2,0.2-0.3,0.2-0.3,0.2c-0.2-0.2-0.2-0.3-0.5-0.6C120.7,22,121.3,21,122.2,19.5z M37.2,171.7
			c-0.6-2.3-0.2-4.1,0.8-6c3-6,6-12.2,8.9-18.2c-0.6-0.3-1.1-0.3-1.5-0.5c1.2-6.9,5.3-12.7,8.6-18.7c2.3-4.4,5.7-8.4,6.9-13.1
			c1.4-5.6,6.5-7.7,8.6-12.4c0.6,3.5-2.9,5-3.8,7.8c-1.1,3-3.2,5.7-4.4,8.7c-0.9,2.6-3.8,4.8-2,8.7c0.9-1.1,1.7-1.7,2.3-2.4
			c6.8-10.7,13-21.9,17.5-33.8c2-5.6,5.1-10.1,8.6-14.5c10.7-14,21.6-28,32.4-42.1c3.2-4.1,6.3-8.1,10-11.9c2.4-2.6,5.6-4.5,8.7-7.1
			c1.7,3.8,1.8,7.4,1.5,11l-2,14.2c-2,13.4-3.9,26.7-5.7,40c-0.6,3.9-1.5,7.7-0.9,11.8c0.5,2.4-0.9,5-1.4,7.4l-17.9,9.2
			c-3,1.5-5.9,3-8.6,4.7c-1.2,0.8-2.3,1.8-3.3,2.6c2.9-1.1,5.7-2.1,8.4-3.5c6.8-3.3,13.4-6.8,20.2-10.3c0.8,1.2,0.5,2.3-0.8,2.9
			c-8,3.8-15.8,7.5-23.8,11.2c-1.2,0.6-2.7,0.5-4.1,0.8c-2.6,1.2-5,2.3-7.4,3.6c-2,0.9-3.6,2.1-5.4,3.3c-2.7,2-5.3,4.1-8.1,6
			c-2.3,1.7-4.7,3.2-6.5,5.6c-0.8,0.9-2,1.7-3,2.1c-6.5,2.9-11.8,7.2-16,13c-1.1,1.7-2.6,3-3.9,4.5c-3.8,4.5-7.5,9-11.3,13.7
			L37.2,171.7z"/>
	</g>
	<path class="st0" d="M214.5,138.3c-2.7,10.3-5.3,20.4-7.8,30.6l-1.8,7.1c-0.3,1.4-0.6,2.9-0.2,4.1c0.8,3,0,5.3-2.4,7.7
		c-1.8,0.9-4.1,1.4-5.9-0.8c-0.5-0.6-1.2-0.8-1.8-1.1c-2.9-1.4-3.6-2.7-3-5.7l3.9-16.1c1.1-4.5,2.3-8.9,3.6-13.4
		c0.6-2.6,0.9-5.4,3-7.5c0.5-0.3,0.8-1.2,0.8-1.8c0.6-1.7,1.1-3.6,1.4-5.4c0.2-1.7-0.2-3.2-0.3-4.8c-2.7-0.5-4.7,0.3-6.6,1.2
		c-12.5,5.7-23.2,13.9-32.3,24.3c-0.8,0.9-1.8,2.1-3,2.6c-2.3,0.9-3.5-0.2-3.3-2.6c0.5-3,1.2-6,2-9c1.4-6.3,4.7-12.1,7.5-17.8
		l4.1-7.7c-0.3,0-0.9,0.2-1.7,0.2c2.7-5.1,5.3-10.3,9.5-14.6c0.9,0.8,1.4,1.2,2.3,2.3c-1.4,1.2-2.6,2.3-3.8,3.5
		c1.7,2.7,1.1,5.7,0.5,8.7c2.3-3.3,4.7-6,6.9-9.5c0.2,0.6,0.3,1.4,0.3,2s-0.8,1.4-0.6,1.5c2,3-0.3,4.8-2,6.8c-1.1,1.5-2,3.3-2.4,5.1
		l8.1-4.1c-0.6,1.7-0.9,2.3-1.4,3.6c2.3-0.8,4.4-1.5,6.6-2.4c-0.8-0.6-1.2-0.9-1.8-1.2c5.7-8,15.1-5.1,18.7,0.2
		C214.5,128.2,215.9,133,214.5,138.3z M173.8,119.3c-0.3,0.6-0.8,0.9-1.2,1.5c-0.2,0.3,0,0.6,0,1.1
		C173.7,121.4,174.7,120.8,173.8,119.3z"/>
	<path class="st0" d="M252.8,172.2c-1.1,1.4-2,2.6-2.9,3.6c-1.8-1.8-1.4-3.9-0.8-6l6.8-24.1c0.9-3.5,1.8-6.8,2.6-10.3
		c0.3-1.5,0.3-3,0.5-4.7c-7.2,1.1-12.5,5-17.2,9.8c-8.3,8.3-16.9,16.4-23.8,25.9c-1.1,1.4-2.3,2.1-4.1,1.5c-1.5-0.6-2-1.8-1.2-4.4
		c0.5-1.8,1.1-3.8,1.7-5.7c-0.9-1.7-0.8-3.5,0-5.6c2.7-6.8,5.3-13.7,7.8-20.7c0.6-1.8,1.2-3.8,1.2-5.6c0.2-2.7,0.6-5.3,1.8-7.7
		c1.4-3.3,2.6-6.6,3.9-10c1.1-2.6,2.1-5.3,4.8-6.9c0.6,1.1,1.1,2,1.5,3.2c1.2,0.5,2.6,1.1,3.9,1.7c0.5,1.4,0.8,2.6,1.1,3.8l-10,25
		c0.2,0.2,0.5,0.3,0.8,0.5c2.4-2.1,5-4.4,7.5-6.3c3.6-2.7,7.1-5.6,11-8c2.9-1.7,6.2-2.7,9.3-3.9c1.7-0.8,3.2-0.2,4.5,1.2
		c0.6,0.6,1.5,1.2,2.1,1.8c4.1,3.3,5.7,7.8,5,12.8c-0.9,6-2.4,11.9-3.9,17.8c-2.1,7.5-4.4,14.9-6.6,22.5c-0.9,2.9-2.3,5.7-3.5,8.9
		H253C250.7,178.8,253.6,175.8,252.8,172.2z"/>
	<path class="st0" d="M275.9,168.7c-1.7-4.4-1.2-8.9-0.9-13.4c0.9-10.4,5.4-19.6,10.4-28.6c1.1-2,1.8-3.9,2.9-5.9
		c1.1-2.3,2.6-4.5,4.5-6.3c0.6,0.6,2.9,1.2,3.6,1.8c-1.5,1.4-3,2.4-5,4.1l1.7,1.1c0.6-0.6,1.2-1.2,1.7-1.8c0.6-0.9,2,0.3,2.3-0.9
		c0.5-0.9,1.2-1.4,2.1-0.9c0.9,2.7,0.8,3.5-1.1,5.1c-0.8,0.8-1.4,1.5-2,2.6c-1.1,1.7-2,3.6-3.2,5.4l-0.6-1.7
		c-2.1,4.4-4.2,8.1-5.9,12.4c-0.6,1.4-0.3,3.2-0.3,4.8c0,0.6,0.2,1.4,0,1.8c-1.2,2.7-1.2,5.6-1.5,8.4c-0.5,3.6,0,7.2,1.1,10.9
		c0,0.5,0.3,0.9,0.6,1.4c2.1-0.2,3.5-0.9,4.4-2.6c-0.5-0.3-0.9-0.3-0.9-0.3l4.5-3.9c1.1,1.1-1.4,1.5-1.5,3c1.7,0.5,3.6,0.5,5.7,0.3
		c-1.1,1.2-1.7,2.4-2.4,3.2c-1.8,1.5-3.8,2.7-5.4,4.1c-0.5,0.3-0.8,0.6-1.1,0.8C284,176.6,278,174.8,275.9,168.7z M299.6,103.1
		c-0.8,0-1.5,0.5-1.8,0.2c-0.6-0.2-1.2-1.1-1.1-1.7c0.2-2.9,0.9-5.7,3.3-7.7c2.3,0.3,3.3,1.7,3.9,4.1c0.9-1.7,2-2.3,3.6-1.5
		c0.3,1.4,1.1,2.7,0.5,4.2c-1.1,2-2.7,3.3-4.2,4.5C302.3,106.5,300.9,105.4,299.6,103.1z"/>
	<path class="st0" d="M319.6,164.5c0.3-0.5,0.6-0.8,0.9-1.4c-3-2.1-4.7-5.6-8.4-6.8c-0.9-0.3-1.5-1.5-2.3-2.3
		c-1.1-1.2-2.1-2.6-3-3.8c-0.5-0.6-0.6-1.4-0.8-2c-0.2-1.4-0.2-2.6-0.3-3.9c-2.9-0.2-6.2,2.3-8.7-1.4c0.2-1.1,0.2-2.4,0.3-3.9
		c1.1-0.8,2.1-1.5,3.2-2.4l-0.2,0.2c3.2,0.2,6.5,0.3,9.3-1.5c0.9-0.5,2-0.9,2.6-1.7c2.9-3.2,6.2-5.9,9.8-8.1
		c3.2-2.3,6.2-4.7,8.4-7.8c0.9-1.4,2-2.4,3.2-3.3c2.6-2,5.1-3.8,7.7-5.4c3.2-2.1,6.5-3.9,9.8-5.7c2.1-1.2,4.2-1.2,6.3,0
		c1.4,0.8,2.7,1.4,3.9,2c-0.6,0.5-2.1-0.9-2,1.7l2-1.7c4.4,2.3,5.3,5.1,3.3,9.5c-1.2,2.7-3,4.8-5.1,6.8c-5.9,5.4-12.7,9.7-19.6,13.7
		c-6.8,3.9-14.2,6.3-21.1,9.3c-0.8,0.3-1.7,0.6-2.3,0.9c0.2,8,4.7,11.6,16.1,12.5c-0.5-0.5-0.6-0.9-1.1-1.4c3.2-0.6,6.2-0.9,9-1.8
		c2.9-0.8,5.7-2.1,8.9-3.2c1.2,0.8,2.7,1.8,4.2,3c2.9,2.3,2.9,6-0.2,7.7c-5.6,3.3-11.6,5-18.1,5h-5.4
		C326.4,167.4,323.1,165.7,319.6,164.5z M313.6,146.3c-1.4,0.6-0.9,1.5-0.5,2.7C313.3,147.8,313.4,147,313.6,146.3z M341.6,122.1
		l-0.5-1.8c-5.6,3.2-10.4,6.8-14.6,11C332.3,129.2,338.9,125,341.6,122.1z"/>
	<path class="st0" d="M453.5,274.4c-13.1-3.6-25-9.7-34.2-20.2c-10-11.8-12.4-25.2-8.6-40c0.6-2.3,1.4-4.5,2.7-6.6
		c-0.5,2.9-1.2,5.9-1.4,8.9c-0.2,3-1.4,6,0.2,9l1.2-8.4c0.6-2.9,1.1-5.7,2-8.4c3.3-10.1,7.2-19.9,13.7-28.5c1.2-1.5,2.3-3,3.5-4.4
		c7.1-8.1,14.5-16,23.1-22.6c14.5-11.3,29.7-21.7,46.1-30.2c18.1-9.3,36-18.7,54.9-26.2c2.4-0.9,4.1-2.4,5.1-4.8l15.5-31.2
		c0.2-0.3,0.5-0.6,1.2-1.7c0.3,2.7,0.5,4.7,0.8,6.6c2.4-1.1,1.7-3.9,2.1-6.5c1.8,1.1,3,1.8,4.2,2.4c2,3.2,1.2,5.9-0.2,8.6
		c-3,6.3-6,12.5-9.2,19.3c7.7-2.7,14.9-5.1,22.2-7.8c6-2.1,12.1-4.1,17.9-6.6c7.7-3.5,15.2-7.4,22.9-11.2c4.1-2.1,8-4.5,11.2-8
		c2.3-2.4,2.4-2.3,3.6-6.3c-2.6-1.7-5.6-2-8.4-2.3c-4.8-0.8-9.8-1.4-14.8-1.5c-18.4-0.6-36.8-0.2-55.2,1.2c-9.5,0.8-19,1.2-28.5,2.1
		c-10.6,1.1-21.1,2.4-31.7,3.8c-6.6,0.8-13.4,2-20.2,2.7c-5.6,0.8-11.2,1.1-16.9,1.5c-0.9,0.2-2,0.3-2.9,0.6
		c-10.9,3.2-21.7,6.3-32.6,9.7c-3.3,0.9-6.8,1.8-10,2.9L432,76c-1.5-0.8-2.9-1.4-4.5-2.1c0.6,1.5,1.1,2.7,1.7,4.1
		c-2.4,0.8-3.6-0.6-4.5-2.7c0.8-1.7,1.5-3.5,2.4-5.7c-0.9,0.5-1.7,0.5-1.8,0.8c-0.8,1.4-1.4,2.7-2,4.1c-2.9-0.6-3.8-2.6-4.5-4.8
		c1.1-3.3,3.5-5.1,6.3-6.5l15.2-7.1c7.5-3.6,15.4-5.9,23.5-7.7c1.5-0.3,3-0.6,4.5-1.1c10.7-3.8,21.9-4.8,32.9-6.5
		c5.7-0.9,11.6-1.4,17.3-1.7c3.3-0.2,6.8,0.5,10.1,0.6c1.4,0.2,2.7,0.2,4.1-0.6c-1.2-0.2-2.6-0.5-3.9-0.6c1.7-1.7,3.8-1.7,5.7-2
		c11-0.9,22-1.8,33-2.9c17.6-1.4,35.1-2.3,52.8-2c9.7,0,19.3,0.2,28.8,2.3c2.9,0.8,5.7,1.7,8.3,2.9c2.9,1.4,4.5,3.5,4.8,6.9
		c0,2,1.7,3.8,2.7,5.6c-1.8,10.9-9.2,17.5-18.1,22.9c-2.3,1.5-4.7,2.7-6.8,4.8c1.2,0,2.3,0.2,3.3,0c4.1-0.2,8-0.6,11.9-0.6
		c11.2,0.2,22.3,0.9,33.5,0.8c17-0.3,33.6,2,50.1,6.2c6.8,1.8,13.4,4.2,19.6,8c13.3,8.3,21.4,26.1,13,43.4
		c-5.1,10.6-12.5,19.2-20.8,27.3c-13.1,12.8-27.7,23.8-43.1,33.8c-7.4,4.8-15.4,8.7-23.1,13.3c-3.9,2.3-7.5,5-11.3,7.4
		c-1.1,0.8-2.1,1.5-3.3,2.1c-37.2,20.2-76,36.9-116.7,48.6c-6.9,2-14.2,3-21.1,5c-8.3,2.3-16.6,3.6-25,4.5
		C489.2,279,471.1,279.4,453.5,274.4z M417.9,214.9c-0.5,4.4-0.8,8.7-1.2,13C418.5,223.6,419.1,219.4,417.9,214.9z M534.3,260.7
		c0.9-1.5,1.4-2.6,2-3.5c3.8-0.8,7.4-1.4,11-2.3c5.7-1.4,11.8-2.1,17.2-4.5c3.2-1.5,6.5-2.9,9.8-4.1c4.5-1.5,9.2-2.7,13.7-4.1
		c3.3-1.1,6.8-1.7,10-2.9c9.5-3.8,18.8-7.5,28.2-11.5c8.3-3.5,16.6-7.1,24.9-10.6c4.1-1.7,8.1-3.2,11.9-5.3c3.9-2,7.4-4.5,11-6.9
		c0.5-0.3,0.9-0.6,0.9-0.8c-0.2-3.6,3-4.2,5.1-5.6c11.8-7.5,23.7-14.9,35.4-22.8c11.6-7.7,22.6-16.6,32.3-26.8
		c7.7-8.1,14.8-16.9,16.3-28.6c0.8-5.7-0.6-10.9-5.6-14.2c-3.9-2.6-8.1-4.5-12.5-6.3c-7.4-3.3-15.5-4.8-22.9-8.6
		c-0.5-0.3-1.5,0.2-2.4,0.3c0.6,0.6,0.9,0.9,1.5,1.4c-1.5,0-2.4,0.2-3.3,0c-8.9-0.9-17.8-1.7-26.7-2.7c-4.1-0.5-8.1-0.2-12.1-1.8
		c-1.8-0.8-4.4-0.6-6.5-0.3C662.3,90,651,90,639.9,90.8c-3,0.2-6.2,0-9.2,0.6c-6,1.1-12.1,2.4-18.2,3.6l-18.8,3.2
		c0.9,1.5,1.8,2.7,2.6,3.8c-1.1,3.2-1.1,3.2-3.9,4.2l-3.9-2.1c-0.3-1.1-0.5-2.1-0.9-3.5c-5.9-0.6-11,2-16.6,2.6
		c0.2,0.3,0.3,0.8,0.5,1.4c-3.8,1.8-3.8,1.8-5.9,5.4c-2.4,4.8-5.1,9.5-7.5,14.3c-3.2,6.3-6,12.7-9.2,19c-3.9,7.5-6.3,15.7-9,23.1
		c0.3,1.4,0.5,2.3,0.8,3c0.6,1.7,0,2.9-1.2,3.6c-1.4,0.8-2.7,0.6-4.1-0.5c-1.8-1.4-2.7-3.2-2-5.6c0.8-2.6,2-5.1,2.6-7.8
		c0.8-3.6,2.4-6.8,3.9-10.1c1.8-3.9,4.1-7.7,4.7-11.6c1.4-7.4,4.5-13.7,7.5-20.2c0.9-1.8,1.8-3.6,2.7-5.7c-2.9,1.2-5.3,2-7.7,3
		c-4.4,2-8.7,4.1-13.1,6.2c-19.2,9.5-38.3,19-56.1,30.9c-21,14.2-39.2,31.1-51.1,53.8c-3,5.7-5.3,11.6-6,18.1
		c-0.3,2.4-0.6,4.8-0.9,6.6c0.6,2.1,0.9,3.9,1.4,5.6c0.8,2.3,1.1,4.5,2.1,6.5c1.4,2.4,2.7,5,5.4,6.5c2.9,1.5,5.6,3.2,8.3,4.8
		c0,0.3-0.2,0.6-0.2,0.8h-4.5c12.1,9,17.6,9.5,25,8.7c-1.5-0.8-2.7-1.4-4.1-2c0.3-0.2,0.5-0.5,0.6-0.3c0.5,0,0.8,0.2,1.2,0.2
		c17,3.8,34.1,4.7,51.4,2.1c2.9-0.5,6.3-1.4,8.7-0.2c3,1.2,5.4,0.5,8.1,0.2c0,0.6,0,0.9,0.2,2C527.4,263.4,531.1,261.9,534.3,260.7z
		 M633.8,87l-2-1.1l1.4-1.7c-4.2-0.6-8.1,0.6-12.2,1.2c-2.9,0.5-4.5,2.6-7.1,4.4L633.8,87z M684.3,203.7c-3,0.3-5.9,2-10.3,5.7
		C678,207.2,681.2,205.5,684.3,203.7z"/>
	<path class="st0" d="M785.7,152.3c-1.2,1.5-2,3.5-3.5,6c3.6-2,6.5-3.6,9.2-5.7c9.8-7.4,19.6-14.8,29.6-22.2l7.4-5.9
		c0.9-0.6,2-0.9,3-1.5l2.3,5.1c2-0.5,3.5-2.6,5.7-1.1c2.7,3.8,1.4,7.5,0,11.3c-0.9,2.4-2.1,4.7-3.3,6.9l-12.7,25.5
		c-0.5,0.9-1.1,1.8-1.7,2.9c-1.4-1.7-0.3-3.2,0.2-4.5c0.8-1.8,1.5-3.6,2.4-5.4c2-2.7,3.6-5.6,4.7-8.7c-2.1,2.6-4.8,5-4.7,8.7
		c-2,0.9-2.6,2.9-3.5,4.7c-1.1,2.3-2.1,4.5-3.5,7.2l-2.4-2.7c-0.5,0.3-1.1,0.6-2,1.1c-0.6-0.6-1.2-1.2-2-1.8c0.8-2.7,2.4-5,1.7-8
		c-0.2-0.8,0.6-1.7,1.1-2.6l7.1-13.9c0.3-0.8,0.6-1.7,1.4-3.3l-13,9.2c-0.5,0-0.9,0-1.4,0.2c-1.5-0.5-1.8-0.3-3,1.7
		c0.6-0.2,1.5-0.3,2.3-0.3c1.2,0.5,2-0.2,2.6-1.1c1.4-0.6,2.7-1.1,4.8-1.8c-6.6,5.9-13.4,10.3-20.2,14.5c-3.6,2.3-7.4,4.1-11.2,6
		c-4.7,2.4-9.3,1.7-13.9-0.2c-2.3-0.9-3.2-2.7-3-5.3c0.2-5.3,1.8-10.1,4.5-14.3c3.3-4.8,6.6-9.5,10.4-13.9c8-9.2,16.9-17.5,27-24.4
		c3.6-2.4,7.7-4.1,11.9-5.1c1.8-0.5,3.3-1.7,5.1-2.6s3.6-2,5.6-2.4c3.2-0.9,5.3,1.2,7.2,3.5c-0.6-0.2-1.2-0.5-2.1-0.8
		c-0.2,0.8-0.5,1.5-0.6,2.6c1.4,0.2,2.7,0.5,3.9,0.6c3,3,3.9,6.3,2.1,10.4c-3.3,1.5-3.6,1.4-5.6-1.5c-0.6,0.3-1.4,0.6-2.1,1.1
		c-0.5-0.5-1.1-0.8-1.5-1.2c-0.3-0.5-0.5-0.9-0.9-1.8c-2,0.9-3.9,1.5-5.6,2.6c-5.7,3.6-11.6,7.4-17.2,11.2c-3.2,2-6,4.4-9,6.5
		C793.8,141.6,790,147.2,785.7,152.3z M780.1,165.9c-0.9,0.3-1.8,0.5-2.7,0.6C779.8,167.4,780.5,167.1,780.1,165.9z M783,163.5
		c0.9,0.3,1.5,0.6,2.1,0.8c0.3-0.6,0.6-1.2,1.4-2.4L783,163.5z M803.2,156.2c0.2,0.2,0.3,0.3,0.3,0.6l0.9-1.1L803.2,156.2z"/>
	<path class="st0" d="M924.8,9.5c-2.9,2.4-3.9,5.9-5.4,9c-3.6,8.3-7.2,16.6-11,24.9c-1.7,3.6-3.8,7.2-5.7,10.9c-0.5,0.6-1.2,1.2-2,2
		c0.3,3.9-1.2,7.7-3,11.5l-13.6,28.6c-0.6,1.1-1.1,2.4-1.8,3.8c1.8,0,3.3-0.3,4.5,0.2c3.9,1.5,8.3,2.3,12.1,4.2
		c2.7,1.4,4.5,4.2,4.4,7.8c-0.5,5-2,9.3-5.3,13.1c-4.1,4.4-8.9,7.7-14.5,10c-0.9,0.3-1.7,0.6-3,1.2c2.1,3.2,3.8,6.3,6,9
		c6,7.2,12.2,14.5,18.4,21.6c1.7,2.1,3.8,4.1,2.7,7.2c-0.9,2.7-2.7,3.8-5.3,2.7c-1.5-0.8-2.7-1.8-4.5-1.2c-0.6,0.2-1.7-0.9-2.4-1.5
		c-1.8-2-3.5-4.1-5.4-6.2c-2.3-2.4-3.6-5.6-6.6-7.5c-0.3-0.3-0.8-0.8-0.9-1.4c-0.6-3.2-2.7-5.6-4.7-8c-1.4-1.7-2-4.2-4.8-4.4
		c-0.5,0-0.9-0.9-1.2-1.5c-1.2-2.1-2.4-4.1-3.3-6.2c-0.9-2.1-1.4-4.4-2.1-7.1c-0.9,1.7-2.1,3-2.6,4.4c-1.7,6.8-5.4,12.5-8.4,18.7
		c-1.2,2.3-2.6,4.4-2.9,7.1c-0.5,3.2-1.7,3.8-5.4,3.2l0.9-3.5l-5.1,2.9c-1.2-2.9-1.4-5.4,0.3-8.1c2-3.3,3.2-7.1,4.4-10.9
		c0.9-3,2.7-5.9,3.9-8.9c0.6-1.4,0.9-2.7,1.4-4.1c1.4-2.4,1.2-3.6-0.9-6.2c0.9-3.2,2.6-6,5.3-8.1c4.1-3.5,6.6-7.8,8.9-12.7
		c9.8-20.8,19.9-41.5,29.6-62.4c5.4-11.5,10.3-23.4,15.4-35c1.2-3,2.9-5.7,4.4-8.6c2.6,0.9,1.1,3.2,2.3,4.5c0.9-1.2,2-2.4,3.3-3.9
		c0.6,3-2.1,5.7,1.2,8.1c0.6-0.2,1.5-0.3,2.7-0.5C924.8,8.7,925,9.3,924.8,9.5z M848.8,159.8c-0.3,0-0.5-0.2-0.8-0.2v1.8
		C848.4,161,848.5,160.4,848.8,159.8z M876.3,116.9c-3,1.4-4.4,3.6-5,6.8c5.7,0.5,14-4.2,18.7-11
		C884.9,113.4,880.5,114.9,876.3,116.9z"/>
	<path class="st0" d="M928.9,164.5c0.3-0.5,0.6-0.8,0.9-1.4c-3-2.1-4.7-5.6-8.4-6.8c-0.9-0.3-1.5-1.5-2.3-2.3
		c-1.1-1.2-2.1-2.6-3-3.8c-0.5-0.6-0.6-1.4-0.8-2c-0.2-1.4-0.2-2.6-0.3-3.9c-2.9-0.2-6.2,2.3-8.7-1.4c0.2-1.1,0.2-2.4,0.3-3.9
		c1.1-0.8,2.1-1.5,3.2-2.4l-0.2,0.2c3.2,0.2,6.5,0.3,9.3-1.5c0.9-0.5,2-0.9,2.6-1.7c2.9-3.2,6.2-5.9,9.8-8.1
		c3.2-2.3,6.2-4.7,8.4-7.8c0.9-1.4,2-2.4,3.2-3.3c2.6-2,5.1-3.8,7.7-5.4c3.2-2.1,6.5-3.9,9.8-5.7c2.1-1.2,4.2-1.2,6.3,0
		c1.4,0.8,2.7,1.4,3.9,2c-0.6,0.5-2.1-0.9-2,1.7l2-1.7c4.4,2.3,5.3,5.1,3.3,9.5c-1.2,2.7-3,4.8-5.1,6.8c-5.9,5.4-12.7,9.7-19.6,13.7
		c-6.8,3.9-14.2,6.3-21.1,9.3c-0.8,0.3-1.7,0.6-2.3,0.9c0.2,8,4.7,11.6,16.1,12.5c-0.5-0.5-0.6-0.9-1.1-1.4c3.2-0.6,6.2-0.9,9-1.8
		c2.9-0.8,5.7-2.1,8.9-3.2c1.2,0.8,2.7,1.8,4.2,3c2.9,2.3,2.9,6-0.2,7.7c-5.6,3.3-11.6,5-18.1,5h-5.4
		C935.7,167.4,932.4,165.7,928.9,164.5z M922.9,146.3c-1.4,0.6-0.9,1.5-0.5,2.7C922.6,147.8,922.7,147,922.9,146.3z M950.9,122.1
		l-0.5-1.8c-5.6,3.2-10.4,6.8-14.6,11C941.6,129.2,948.2,125,950.9,122.1z"/>
	<path class="st0" d="M1037,121.2c0,3.5-2.7,7.2-6.6,8.4c-0.6-0.9-1.4-1.8-2-2.9c-0.3,0-0.5-0.2-0.8-0.2c-1.4-0.2-2.9,1.4-4.2-0.2
		c-0.2-0.2-1.2,0.3-1.8,0.6c-2.1,0.9-4.2,2-6.3,3.2c-4.8,2.6-8.9,6-12.8,9.7v-0.2c-1.4,2-2.6,4.1-4.2,5.9c-2.1,2.7-4.7,5-6.9,7.5
		c-1.5,1.8-2.9,3.8-3.8,5.7c-1.8,4.1-4.2,7.7-6.5,11.6l-5.4-3c-0.6-2.3-1.4-4.8-2-7.5c6.3-17.2,15.5-33.3,20.8-51.3l4.7,2.3
		c-0.2,0.9-0.2,2-0.3,3.2c1.4,0.3,2.7,0.5,4.5,0.8c-0.8,3.3-1.5,6.3-2.4,9.8c1.1-0.8,2-1.4,2.7-2c5.4-4.7,11.8-8,18.8-9.3
		c1.8-0.5,3.6-0.6,5.3-0.5c0.9,0,1.8,0.6,2.4,1.4c1.1,1.1,1.8,2.6,2.9,3.8c0.5,0.5,1.5,0.3,2.3,0.6
		C1036.6,119.1,1037,119.9,1037,121.2z M1002.5,139.8c-0.2-0.5-0.3-0.8-0.5-1.5c-4.1,2.4-6.9,5.9-10,9.2c-0.6,0.6-0.6,1.8-1.1,3.8
		c3.5-3.8,6-6.9,8.9-10C1000.5,140.7,1001.6,140.4,1002.5,139.8z M1029.8,115.7c-2.3-1.8-3.9-1.1-5.6-0.8
		c-6.3,1.5-12.2,3.8-17.9,8.3C1014.4,120.5,1021.8,118.2,1029.8,115.7z"/>
</g>
</svg>
