<?xml version="1.0" encoding="utf-8"?>
<!-- Generator: Adobe Illustrator 25.1.0, SVG Export Plug-In . SVG Version: 6.00 Build 0)  -->
<svg version="1.1" id="Layer_1" xmlns="http://www.w3.org/2000/svg" xmlns:xlink="http://www.w3.org/1999/xlink" x="0px" y="0px"
	 viewBox="0 0 521 310.7" style="enable-background:new 0 0 521 310.7;" xml:space="preserve">
<style type="text/css">
	.st0{fill:#333333;}
</style>
<g>
	<path class="st0" d="M117.2,240.2h-12.8c-0.8,4.2-1.6,8.3-2.5,12.5c-2.7,13.1-5.9,26.1-9.1,39.2c-0.7,2.7-1.9,5.6-3.6,7.9
		c-1.3,1.8-3.7,2.8-5.8,4.3v6.7c3.4-1.9,6.4-3.7,9.5-5.2c1.8-0.9,3.4-1.9,4.5-3.6l4.3-8l1.8-3.4c0.3,4-1.6,7.6-2.7,11.4
		c-0.1,0.6,0,1.2,0,1.9c1.6-1.9,2.7-3.9,3.3-5.9c1.8-5.9,4.3-11.7,3.7-18.3c-0.3-1.5,0.9-3.3,1.5-4.9c0.1-0.3,0.6-0.7,0.6-0.9
		c-1.2-1.9,0.1-3.6,0.6-5.2C113,259.2,115.4,249.8,117.2,240.2z M103.7,290.2c-0.1-0.3-0.3-0.6-0.1-1c0.3-1.2,0.6-2.2,1.2-3.9
		C105.7,287.6,104.6,288.9,103.7,290.2z"/>
	<path class="st0" d="M121.2,120.6l7.2-3.6c-0.5,2.7-0.8,4.5-1.2,6.2l-1.8,8c-0.9,5.6-1.7,11-2.9,16.6s-3,11.2-4.1,16.9
		c-3.6,18.8-6.8,37.8-10.4,56.8c-1.2,6.2-2.4,12.5-3.7,18.7h12.8c0.1-0.6,0.2-1.1,0.3-1.7c3.5-17.6,6.8-35.3,10-53.1
		c3.6-20.5,7.1-41,10.6-61.5l2.3-12.4l3.8-2c6.8-3,13.7-6,20.7-8.9c3.6-1.5,7.2-3.3,11-3.9c6.6-1.1,13.1-3.9,19.6-1.1
		c0.6-0.8,0.9-1.2,1.2-1.5c0.5,0.5,0.9,0.6,1.2,0.9c0.3,0.5,0.8,0.9,0.9,1.4c2.6,5,1.7,10.6-2,14.2c-1.7,1.5-3.2,3.2-2.9,6.2
		l4.7-6.3c-0.2,2-0.2,3.2-0.3,4.4l3.6-0.5c1.5,3.3-3.2,3.3-2.9,6c1.2,0.8,2.6,0.9,3.8-0.2c0.8-0.8,1.4-1.5,2.1-2.1
		c5.7-4.5,8.4-15.4,5.7-22c-2.4-5.9-11.8-12.4-18.2-11.6c-6.3,0.8-12.8,0.9-18.8,3.9c-6.6,3.5-13.7,6-20.7,8.9
		c-3.5,1.4-7.2,2.3-11.2,3.5c0.5-3.6,0.8-6.8,1.4-9.8c2.9-15.7,5.3-31.4,6.5-47.2c0.5-6.6,0.9-13.3,1.2-19.9c0-4.8-1.1-9.3-5.1-12.4
		c-1.8-1.4-3.6-2.7-5.3-4.1c-2.1-1.5-4.2-1.5-6.3,0c-1.2,0.8-2.4,1.8-3.6,2.7c-1.8,1.7-3.6,4.1-5.7,4.5c-2.4,0.6-3.8,1.8-5.3,3
		c-4.8,3.9-8.3,9-11.9,13.9c-30,41-56.5,84.3-81.6,128.5c-0.9,1.7-1.4,3.5-1.8,5.1c-0.8,2.7-0.8,5.6-4.1,6.6
		c-0.3,0.2-0.8,0.9-0.9,1.4c-3.8,6.6-7.2,13.4-11.3,20.1c-1.8,3,0,5.7-0.6,8.6C7,203,7.3,204,7.5,205.1c0,0.3,0.3,0.5,0.6,0.6
		c1.7,1.2,1.5,2.6,0.9,4.2c-0.2,0.3,0.2,0.8,0.3,1.2l1.7-0.5c-0.3,2.6-0.3,2.6,1.1,4.4c0.6-0.2,1.5-0.5,2-0.3
		c2.3,1.4,4.2,0.8,5.9-0.8c1.7-1.5,3.5-2.9,3.8-5.4c0.2-1.5,0.9-3.3,1.8-4.5c5.9-7.5,11.5-15.2,17.6-22.5
		C65.2,156.4,91.3,136.2,121.2,120.6z M199.3,109.3c0.6-1.2,1.4-2.3,2-3.5C201.6,107.5,201,108.7,199.3,109.3z M122.2,19.5
		c0.8,2.3-0.5,3-1.2,3.9c-0.2,0.2-0.3,0.2-0.3,0.2c-0.2-0.2-0.2-0.3-0.5-0.6C120.7,22,121.3,21,122.2,19.5z M37.2,171.7
		c-0.6-2.3-0.2-4.1,0.8-6c3-6,6-12.2,8.9-18.2c-0.6-0.3-1.1-0.3-1.5-0.5c1.2-6.9,5.3-12.7,8.6-18.7c2.3-4.4,5.7-8.4,6.9-13.1
		c1.4-5.6,6.5-7.7,8.6-12.4c0.6,3.5-2.9,5-3.8,7.8c-1.1,3-3.2,5.7-4.4,8.7c-0.9,2.6-3.8,4.8-2,8.7c0.9-1.1,1.7-1.7,2.3-2.4
		c6.8-10.7,13-21.9,17.5-33.8c2-5.6,5.1-10.1,8.6-14.5c10.7-14,21.6-28,32.4-42.1c3.2-4.1,6.3-8.1,10-11.9c2.4-2.6,5.6-4.5,8.7-7.1
		c1.7,3.8,1.8,7.4,1.5,11l-2,14.2c-2,13.4-3.9,26.7-5.7,40c-0.6,3.9-1.5,7.7-0.9,11.8c0.5,2.4-0.9,5-1.4,7.4l-17.9,9.2
		c-3,1.5-5.9,3-8.6,4.7c-1.2,0.8-2.3,1.8-3.3,2.6c2.9-1.1,5.7-2.1,8.4-3.5c6.8-3.3,13.4-6.8,20.2-10.3c0.8,1.2,0.5,2.3-0.8,2.9
		c-8,3.8-15.8,7.5-23.8,11.2c-1.2,0.6-2.7,0.5-4.1,0.8c-2.6,1.2-5,2.3-7.4,3.6c-2,0.9-3.6,2.1-5.4,3.3c-2.7,2-5.3,4.1-8.1,6
		c-2.3,1.7-4.7,3.2-6.5,5.6c-0.8,0.9-2,1.7-3,2.1c-6.5,2.9-11.8,7.2-16,13c-1.1,1.7-2.6,3-3.9,4.5c-3.8,4.5-7.5,9-11.3,13.7
		L37.2,171.7z"/>
	<path class="st0" d="M193.5,274.4c-13.1-3.6-25-9.7-34.2-20.2c-10-11.8-12.4-25.2-8.6-40c0.6-2.3,1.4-4.5,2.7-6.6
		c-0.5,2.9-1.2,5.9-1.4,8.9c-0.2,3-1.4,6,0.2,9l1.2-8.4c0.6-2.9,1.1-5.7,2-8.4c3.3-10.1,7.2-19.9,13.7-28.5c1.2-1.5,2.3-3,3.5-4.4
		c7.1-8.1,14.5-16,23.1-22.6c14.5-11.3,29.7-21.7,46.1-30.2c18.1-9.3,36-18.7,54.9-26.2c2.4-0.9,4.1-2.4,5.1-4.8l15.5-31.2
		c0.2-0.3,0.5-0.6,1.2-1.7c0.3,2.7,0.5,4.7,0.8,6.6c2.4-1.1,1.7-3.9,2.1-6.5c1.8,1.1,3,1.8,4.2,2.4c2,3.2,1.2,5.9-0.2,8.6
		c-3,6.3-6,12.5-9.2,19.3c7.7-2.7,14.9-5.1,22.2-7.8c6-2.1,12.1-4.1,17.9-6.6c7.7-3.5,15.2-7.4,22.9-11.2c4.1-2.1,8-4.5,11.2-8
		c2.3-2.4,2.4-2.3,3.6-6.3c-2.6-1.7-5.6-2-8.4-2.3c-4.8-0.8-9.8-1.4-14.8-1.5c-18.4-0.6-36.8-0.2-55.2,1.2c-9.5,0.8-19,1.2-28.5,2.1
		c-10.6,1.1-21.1,2.4-31.7,3.8c-6.6,0.8-13.4,2-20.2,2.7c-5.6,0.8-11.2,1.1-16.9,1.5c-0.9,0.2-2,0.3-2.9,0.6
		c-10.9,3.2-21.7,6.3-32.6,9.7c-3.3,0.9-6.8,1.8-10,2.9l-0.8,5.7c-1.5-0.8-2.9-1.4-4.5-2.1c0.6,1.5,1.1,2.7,1.7,4.1
		c-2.4,0.8-3.6-0.6-4.5-2.7c0.8-1.7,1.5-3.5,2.4-5.7c-0.9,0.5-1.7,0.5-1.8,0.8c-0.8,1.4-1.4,2.7-2,4.1c-2.9-0.6-3.8-2.6-4.5-4.8
		c1.1-3.3,3.5-5.1,6.3-6.5l15.2-7.1c7.5-3.6,15.4-5.9,23.5-7.7c1.5-0.3,3-0.6,4.5-1.1c10.7-3.8,21.9-4.8,32.9-6.5
		c5.7-0.9,11.6-1.4,17.3-1.7c3.3-0.2,6.8,0.5,10.1,0.6c1.4,0.2,2.7,0.2,4.1-0.6c-1.2-0.2-2.6-0.5-3.9-0.6c1.7-1.7,3.8-1.7,5.7-2
		c11-0.9,22-1.8,33-2.9c17.6-1.4,35.1-2.3,52.8-2c9.7,0,19.3,0.2,28.8,2.3c2.9,0.8,5.7,1.7,8.3,2.9c2.9,1.4,4.5,3.5,4.8,6.9
		c0,2,1.7,3.8,2.7,5.6c-1.8,10.9-9.2,17.5-18.1,22.9c-2.3,1.5-4.7,2.7-6.8,4.8c1.2,0,2.3,0.2,3.3,0c4.1-0.2,8-0.6,11.9-0.6
		c11.2,0.2,22.3,0.9,33.5,0.8c17-0.3,33.6,2,50.1,6.2c6.8,1.8,13.4,4.2,19.6,8c13.3,8.3,21.4,26.1,13,43.4
		c-5.1,10.6-12.5,19.2-20.8,27.3c-13.1,12.8-27.7,23.8-43.1,33.8c-7.4,4.8-15.4,8.7-23.1,13.3c-3.9,2.3-7.5,5-11.3,7.4
		c-1.1,0.8-2.1,1.5-3.3,2.1c-37.2,20.2-76,36.9-116.7,48.6c-6.9,2-14.2,3-21.1,5c-8.3,2.3-16.6,3.6-25,4.5
		C229.2,279,211.1,279.4,193.5,274.4z M157.9,214.9c-0.5,4.4-0.8,8.7-1.2,13C158.5,223.6,159.1,219.4,157.9,214.9z M274.3,260.7
		c0.9-1.5,1.4-2.6,2-3.5c3.8-0.8,7.4-1.4,11-2.3c5.7-1.4,11.8-2.1,17.2-4.5c3.2-1.5,6.5-2.9,9.8-4.1c4.5-1.5,9.2-2.7,13.7-4.1
		c3.3-1.1,6.8-1.7,10-2.9c9.5-3.8,18.8-7.5,28.2-11.5c8.3-3.5,16.6-7.1,24.9-10.6c4.1-1.7,8.1-3.2,11.9-5.3c3.9-2,7.4-4.5,11-6.9
		c0.5-0.3,0.9-0.6,0.9-0.8c-0.2-3.6,3-4.2,5.1-5.6c11.8-7.5,23.7-14.9,35.4-22.8c11.6-7.7,22.6-16.6,32.3-26.8
		c7.7-8.1,14.8-16.9,16.3-28.6c0.8-5.7-0.6-10.9-5.6-14.2c-3.9-2.6-8.1-4.5-12.5-6.3c-7.4-3.3-15.5-4.8-22.9-8.6
		c-0.5-0.3-1.5,0.2-2.4,0.3c0.6,0.6,0.9,0.9,1.5,1.4c-1.5,0-2.4,0.2-3.3,0c-8.9-0.9-17.8-1.7-26.7-2.7c-4.1-0.5-8.1-0.2-12.1-1.8
		c-1.8-0.8-4.4-0.6-6.5-0.3C402.3,90,391,90,379.9,90.8c-3,0.2-6.2,0-9.2,0.6c-6,1.1-12.1,2.4-18.2,3.6l-18.8,3.2
		c0.9,1.5,1.8,2.7,2.6,3.8c-1.1,3.2-1.1,3.2-3.9,4.2l-3.9-2.1c-0.3-1.1-0.5-2.1-0.9-3.5c-5.9-0.6-11,2-16.6,2.6
		c0.2,0.3,0.3,0.8,0.5,1.4c-3.8,1.8-3.8,1.8-5.9,5.4c-2.4,4.8-5.1,9.5-7.5,14.3c-3.2,6.3-6,12.7-9.2,19c-3.9,7.5-6.3,15.7-9,23.1
		c0.3,1.4,0.5,2.3,0.8,3c0.6,1.7,0,2.9-1.2,3.6c-1.4,0.8-2.7,0.6-4.1-0.5c-1.8-1.4-2.7-3.2-2-5.6c0.8-2.6,2-5.1,2.6-7.8
		c0.8-3.6,2.4-6.8,3.9-10.1c1.8-3.9,4.1-7.7,4.7-11.6c1.4-7.4,4.5-13.7,7.5-20.2c0.9-1.8,1.8-3.6,2.7-5.7c-2.9,1.2-5.3,2-7.7,3
		c-4.4,2-8.7,4.1-13.1,6.2c-19.2,9.5-38.3,19-56.1,30.9c-21,14.2-39.2,31.1-51.1,53.8c-3,5.7-5.3,11.6-6,18.1
		c-0.3,2.4-0.6,4.8-0.9,6.6c0.6,2.1,0.9,3.9,1.4,5.6c0.8,2.3,1.1,4.5,2.1,6.5c1.4,2.4,2.7,5,5.4,6.5c2.9,1.5,5.6,3.2,8.3,4.8
		c0,0.3-0.2,0.6-0.2,0.8h-4.5c12.1,9,17.6,9.5,25,8.7c-1.5-0.8-2.7-1.4-4.1-2c0.3-0.2,0.5-0.5,0.6-0.3c0.5,0,0.8,0.2,1.2,0.2
		c17,3.8,34.1,4.7,51.4,2.1c2.9-0.5,6.3-1.4,8.7-0.2c3,1.2,5.4,0.5,8.1,0.2c0,0.6,0,0.9,0.2,2C267.4,263.4,271.1,261.9,274.3,260.7z
		 M373.8,87l-2-1.1l1.4-1.7c-4.2-0.6-8.1,0.6-12.2,1.2c-2.9,0.5-4.5,2.6-7.1,4.4L373.8,87z M424.3,203.7c-3,0.3-5.9,2-10.3,5.7
		C418,207.2,421.2,205.5,424.3,203.7z"/>
</g>
</svg>
