<svg width="704" height="95" viewBox="0 0 704 95" fill="none" xmlns="http://www.w3.org/2000/svg">
<rect width="704" height="95" rx="5" fill="#FEC349"/>
<path d="M261.44 32.3083H251.015C250.67 32.3081 250.336 32.4314 250.074 32.656C249.811 32.8806 249.638 33.1917 249.584 33.5333L245.368 60.3192C245.348 60.4435 245.356 60.5705 245.39 60.6915C245.425 60.8125 245.485 60.9247 245.566 61.0202C245.648 61.1157 245.749 61.1923 245.864 61.2448C245.978 61.2973 246.102 61.3244 246.227 61.3242H251.204C251.55 61.3244 251.884 61.2008 252.146 60.976C252.408 60.7511 252.582 60.4396 252.636 60.0977L253.773 52.8731C253.826 52.5315 253.999 52.2203 254.262 51.9954C254.524 51.7705 254.857 51.6469 255.202 51.6466H258.503C265.37 51.6466 269.333 48.3169 270.368 41.7186C270.834 38.8318 270.388 36.5637 269.039 34.9752C267.557 33.2309 264.929 32.3083 261.44 32.3083V32.3083ZM262.643 42.0913C262.073 45.8395 259.214 45.8395 256.451 45.8395H254.878L255.981 38.8395C256.014 38.6347 256.118 38.4482 256.275 38.3135C256.433 38.1788 256.633 38.1048 256.84 38.1048H257.561C259.443 38.1048 261.219 38.1048 262.137 39.1801C262.684 39.8216 262.851 40.7747 262.643 42.0913V42.0913ZM292.601 41.9706H287.609C287.402 41.9706 287.202 42.0446 287.045 42.1793C286.888 42.314 286.783 42.5005 286.751 42.7053L286.53 44.1044L286.181 43.5973C285.1 42.0256 282.69 41.5002 280.285 41.5002C274.769 41.5002 270.057 45.6868 269.139 51.5596C268.662 54.4891 269.34 57.2904 270.999 59.2439C272.52 61.0401 274.697 61.7885 277.287 61.7885C281.732 61.7885 284.196 58.9247 284.196 58.9247L283.974 60.3146C283.954 60.4389 283.961 60.566 283.995 60.6871C284.029 60.8083 284.089 60.9207 284.17 61.0165C284.252 61.1123 284.353 61.1893 284.467 61.2422C284.581 61.295 284.705 61.3225 284.831 61.3227H289.327C289.673 61.3228 290.007 61.1993 290.269 60.9744C290.532 60.7495 290.705 60.438 290.759 60.0962L293.457 42.9756C293.476 42.8517 293.469 42.7248 293.435 42.6039C293.402 42.483 293.342 42.3709 293.261 42.2753C293.179 42.1798 293.078 42.103 292.964 42.0504C292.851 41.9978 292.727 41.9706 292.601 41.9706V41.9706ZM285.643 51.7062C285.161 54.564 282.898 56.4824 280.011 56.4824C278.561 56.4824 277.403 56.0165 276.659 55.1337C275.921 54.257 275.64 53.0091 275.875 51.6192C276.325 48.7858 278.627 46.8048 281.469 46.8048C282.887 46.8048 284.039 47.2768 284.799 48.1673C285.559 49.0669 285.861 50.3224 285.643 51.7062V51.7062ZM319.189 41.9706H314.172C313.935 41.971 313.702 42.0292 313.493 42.1402C313.284 42.2512 313.106 42.4116 312.972 42.6075L306.054 52.8197L303.121 43.0062C303.031 42.7069 302.847 42.4446 302.597 42.2581C302.346 42.0716 302.043 41.9708 301.731 41.9706H296.801C296.663 41.9703 296.526 42.003 296.403 42.0662C296.28 42.1293 296.173 42.221 296.093 42.3337C296.012 42.4464 295.959 42.5767 295.939 42.7139C295.919 42.851 295.932 42.991 295.976 43.1223L301.502 59.3707L296.307 66.7189C296.215 66.8492 296.16 67.0025 296.149 67.1619C296.138 67.3212 296.17 67.4807 296.244 67.6226C296.317 67.7646 296.428 67.8836 296.564 67.9667C296.7 68.0498 296.856 68.0937 297.016 68.0936H302.026C302.26 68.0939 302.491 68.0374 302.698 67.9288C302.905 67.8203 303.083 67.663 303.217 67.4704L319.902 43.3376C319.992 43.2071 320.045 43.0542 320.055 42.8956C320.065 42.737 320.032 42.5787 319.958 42.4378C319.885 42.297 319.774 42.179 319.638 42.0966C319.503 42.0143 319.347 41.9707 319.189 41.9706V41.9706Z" fill="#253B80"/>
<path d="M335.797 32.3084H325.371C325.026 32.3085 324.693 32.432 324.431 32.6565C324.169 32.8811 323.995 33.192 323.941 33.5333L319.725 60.3192C319.705 60.4433 319.713 60.5701 319.747 60.691C319.781 60.8119 319.841 60.924 319.922 61.0196C320.004 61.1151 320.105 61.1918 320.219 61.2444C320.332 61.297 320.456 61.3242 320.582 61.3242H325.932C326.173 61.3239 326.407 61.2372 326.59 61.0798C326.773 60.9225 326.895 60.7048 326.932 60.4658L328.129 52.8731C328.182 52.5315 328.355 52.2203 328.617 51.9954C328.88 51.7705 329.213 51.6469 329.558 51.6467H332.857C339.726 51.6467 343.687 48.3169 344.724 41.7186C345.192 38.8318 344.742 36.5637 343.393 34.9752C341.913 33.2309 339.287 32.3084 335.797 32.3084V32.3084ZM337 42.0913C336.431 45.8395 333.573 45.8395 330.808 45.8395H329.237L330.342 38.8395C330.374 38.6347 330.477 38.448 330.634 38.3132C330.792 38.1785 330.992 38.1045 331.199 38.1048H331.92C333.801 38.1048 335.578 38.1048 336.496 39.1801C337.043 39.8216 337.209 40.7747 337 42.0913V42.0913ZM366.957 41.9706H361.968C361.761 41.9701 361.561 42.0439 361.404 42.1787C361.247 42.3135 361.143 42.5004 361.112 42.7053L360.891 44.1044L360.54 43.5973C359.459 42.0256 357.051 41.5002 354.645 41.5002C349.129 41.5002 344.419 45.6868 343.501 51.5596C343.026 54.4891 343.701 57.2904 345.359 59.2439C346.884 61.0401 349.057 61.7885 351.647 61.7885C356.092 61.7885 358.557 58.9247 358.557 58.9247L358.334 60.3146C358.314 60.4391 358.322 60.5665 358.356 60.6879C358.39 60.8093 358.45 60.9218 358.532 61.0177C358.614 61.1135 358.715 61.1905 358.829 61.2431C358.944 61.2958 359.068 61.3229 359.194 61.3227H363.689C364.034 61.3225 364.368 61.1988 364.63 60.9739C364.892 60.7491 365.066 60.4378 365.119 60.0962L367.819 42.9757C367.838 42.8513 367.83 42.7242 367.795 42.6032C367.761 42.4822 367.701 42.3701 367.619 42.2746C367.537 42.1791 367.435 42.1025 367.321 42.05C367.207 41.9976 367.083 41.9705 366.957 41.9706V41.9706ZM359.999 51.7062C359.52 54.564 357.254 56.4824 354.367 56.4824C352.92 56.4824 351.758 56.0165 351.015 55.1337C350.277 54.257 349.999 53.0091 350.231 51.6192C350.684 48.7858 352.982 46.8048 355.825 46.8048C357.243 46.8048 358.395 47.2768 359.154 48.1673C359.918 49.0669 360.22 50.3224 359.999 51.7062V51.7062ZM372.843 33.043L368.564 60.3192C368.544 60.4433 368.552 60.5701 368.586 60.691C368.62 60.8119 368.68 60.924 368.761 61.0196C368.843 61.1151 368.944 61.1918 369.058 61.2444C369.171 61.297 369.295 61.3242 369.421 61.3242H373.722C374.437 61.3242 375.044 60.8049 375.154 60.0977L379.373 33.3134C379.392 33.1892 379.385 33.0623 379.351 32.9413C379.317 32.8203 379.257 32.7081 379.176 32.6125C379.094 32.5169 378.993 32.44 378.879 32.3873C378.766 32.3345 378.642 32.307 378.516 32.3068H373.699C373.493 32.3076 373.293 32.382 373.136 32.5169C372.979 32.6518 372.875 32.8383 372.843 33.043Z" fill="#179BD7"/>
<path d="M202.076 66.5295L202.873 61.4556L201.097 61.4143H192.617L198.51 23.9734C198.528 23.859 198.586 23.7547 198.674 23.6796C198.762 23.6044 198.874 23.5634 198.989 23.564H213.287C218.034 23.564 221.31 24.5538 223.02 26.5073C223.822 27.4238 224.332 28.3814 224.579 29.4353C224.838 30.5412 224.843 31.8623 224.59 33.4737L224.572 33.5914V34.6239L225.373 35.079C225.985 35.3898 226.536 35.8101 226.997 36.3193C227.683 37.1028 228.126 38.0987 228.314 39.2794C228.507 40.4936 228.443 41.9385 228.126 43.5744C227.76 45.4561 227.169 47.095 226.37 48.4361C225.666 49.6374 224.718 50.6779 223.588 51.4909C222.527 52.2454 221.267 52.8182 219.842 53.1847C218.461 53.5452 216.886 53.727 215.159 53.727H214.046C213.251 53.727 212.478 54.0141 211.871 54.5288C211.265 55.0491 210.863 55.7678 210.737 56.5572L210.653 57.0139L209.245 65.9568L209.181 66.2852C209.164 66.389 209.135 66.441 209.092 66.4761C209.051 66.51 208.999 66.5288 208.946 66.5295H202.076Z" fill="#253B80"/>
<path d="M226.132 33.7105C226.09 33.9839 226.041 34.2634 225.986 34.5506C224.1 44.251 217.649 47.6021 209.411 47.6021H205.216C204.208 47.6021 203.359 48.3353 203.202 49.3311L201.054 62.9799L200.446 66.8488C200.422 67.0023 200.431 67.1592 200.473 67.3087C200.515 67.4582 200.589 67.5969 200.69 67.715C200.791 67.8332 200.916 67.9281 201.056 67.9932C201.197 68.0583 201.35 68.092 201.505 68.0921H208.946C209.827 68.0921 210.575 67.4506 210.714 66.58L210.787 66.2012L212.188 57.2934L212.278 56.8047C212.415 55.931 213.165 55.2895 214.046 55.2895H215.159C222.367 55.2895 228.01 52.3569 229.659 43.8707C230.348 40.3256 229.992 37.3656 228.169 35.2837C227.591 34.6397 226.901 34.1066 226.132 33.7105V33.7105Z" fill="#179BD7"/>
<path d="M224.16 32.9224C223.558 32.7478 222.945 32.6116 222.326 32.5145C221.103 32.3261 219.866 32.2357 218.628 32.2442H207.421C206.995 32.2439 206.582 32.3964 206.258 32.6743C205.934 32.9522 205.72 33.3371 205.655 33.7594L203.271 48.8897L203.202 49.3311C203.276 48.8495 203.52 48.4103 203.89 48.0932C204.259 47.7761 204.729 47.6019 205.216 47.6021H209.411C217.65 47.6021 224.1 44.2495 225.986 34.5506C226.042 34.2634 226.09 33.9839 226.132 33.7105C225.635 33.449 225.116 33.2299 224.582 33.0552C224.442 33.0087 224.301 32.9644 224.16 32.9224V32.9224Z" fill="#222D65"/>
<path d="M205.655 33.7594C205.72 33.337 205.934 32.9519 206.258 32.6742C206.582 32.3964 206.995 32.2444 207.421 32.2457H218.628C219.956 32.2457 221.195 32.3328 222.326 32.5161C223.091 32.6366 223.846 32.8169 224.584 33.0553C225.14 33.2401 225.657 33.4585 226.134 33.7105C226.695 30.1257 226.129 27.685 224.195 25.4748C222.062 23.0417 218.213 22 213.288 22H198.99C197.984 22 197.126 22.7331 196.971 23.7305L191.015 61.5564C190.987 61.732 190.998 61.9115 191.046 62.0827C191.094 62.2538 191.179 62.4125 191.294 62.5478C191.409 62.683 191.552 62.7917 191.713 62.8663C191.874 62.9409 192.049 62.9797 192.227 62.9799H201.054L203.271 48.8897L205.655 33.7594V33.7594Z" fill="#253B80"/>
<path d="M400.68 43.154C400.68 44.1891 400.387 45.0876 399.801 45.8493C399.235 46.5915 398.444 47.1286 397.428 47.4606C398.737 47.8122 399.772 48.4274 400.533 49.3063C401.295 50.1852 401.676 51.2399 401.676 52.4704C401.676 54.2673 401.071 55.6931 399.86 56.7477C398.668 57.7829 397.047 58.3005 394.996 58.3005H386.852V37.7927H394.03C396.139 37.7927 397.77 38.2614 398.922 39.1989C400.094 40.1169 400.68 41.4352 400.68 43.154ZM393.531 41.0739H390.895V46.2595H393.531C394.586 46.2595 395.377 46.0446 395.905 45.6149C396.451 45.1852 396.725 44.5407 396.725 43.6813C396.725 42.822 396.451 42.1774 395.905 41.7477C395.377 41.2985 394.586 41.0739 393.531 41.0739ZM397.604 52.236C397.604 51.3376 397.321 50.654 396.754 50.1852C396.207 49.697 395.426 49.4528 394.41 49.4528H390.895V55.0192H394.41C395.426 55.0192 396.207 54.7751 396.754 54.2868C397.321 53.7985 397.604 53.1149 397.604 52.236ZM418.265 58.3005H414.339V56.8649C413.656 57.4509 412.943 57.8903 412.201 58.1833C411.458 58.4763 410.706 58.6227 409.945 58.6227C408.539 58.6227 407.425 58.154 406.605 57.2165C405.785 56.2595 405.374 54.9899 405.374 53.4079V43.154H409.33V52.6462C409.33 53.5641 409.515 54.2477 409.886 54.697C410.257 55.1462 410.814 55.3708 411.556 55.3708C412.044 55.3708 412.503 55.2927 412.933 55.1364C413.382 54.9802 413.851 54.7263 414.339 54.3747V43.154H418.265V58.3005ZM423.311 64.863C422.96 64.863 422.618 64.8337 422.286 64.7751C421.954 64.7165 421.671 64.6384 421.436 64.5407V61.4938C421.651 61.572 421.885 61.6306 422.139 61.6696C422.413 61.7087 422.706 61.7282 423.018 61.7282C423.975 61.7282 424.776 61.4548 425.421 60.9079C426.065 60.3806 426.651 59.4919 427.178 58.2419L421.465 43.154H425.567L429.112 53.8181H429.2L432.745 43.154H436.524L430.811 58.3005C429.952 60.5856 428.926 62.2458 427.735 63.2809C426.563 64.3356 425.089 64.863 423.311 64.863ZM464.136 58.3005H460.708L452.388 44.4138H452.241V58.3005H448.521V37.7927H452.388L460.239 51.3278H460.386V37.7927H464.136V58.3005ZM475.51 46.0837C474.494 46.0837 473.694 46.4938 473.108 47.3141C472.541 48.1345 472.258 49.277 472.258 50.7419C472.258 52.2067 472.541 53.3493 473.108 54.1696C473.694 54.9899 474.494 55.4001 475.51 55.4001C476.526 55.4001 477.317 54.9899 477.883 54.1696C478.469 53.3493 478.762 52.2067 478.762 50.7419C478.762 49.277 478.469 48.1345 477.883 47.3141C477.317 46.4938 476.526 46.0837 475.51 46.0837ZM475.51 42.8317C477.561 42.8317 479.27 43.5837 480.637 45.0876C482.024 46.572 482.717 48.4567 482.717 50.7419C482.717 53.0075 482.024 54.8923 480.637 56.3962C479.27 57.8806 477.561 58.6227 475.51 58.6227C473.459 58.6227 471.74 57.8806 470.354 56.3962C468.987 54.8923 468.303 53.0075 468.303 50.7419C468.303 48.4567 468.987 46.572 470.354 45.0876C471.74 43.5837 473.459 42.8317 475.51 42.8317ZM499.921 53.2321L502.646 43.154H506.455L501.591 58.3005H498.515L495.644 48.1638H495.556L492.685 58.3005H489.609L484.746 43.154H488.759L491.513 53.2321H491.601L494.238 43.154H497.109L499.804 53.2321H499.921Z" fill="#2D2F2F"/>
</svg>
